# xmcd CD database file
#
# Track frame offsets:
#	150
#	13392
#	22835
#	35756
#	47162
#	64121
#	74796
#	87313
#	102557
#	116674
#	132081
#	148471
#
# Disc length: 2194 seconds
#
# Revision: 2
# Processed by: cddbd v1.5.2PL0 Copyright (c) Steve Scherf et al.
# Submitted via: CdAid (MTCDDB.DLL V2003.12.21)
#
DISCID=ba08900c
DTITLE=Rolando Boldrin - Sambas Urbanos CD 6
DYEAR=2004
DGENRE=Samba
TTITLE0=O Glosador
TTITLE1=Onde Anda Iolanda
TTITLE2=Minha História
TTITLE3=Minha Viola
TTITLE4=Torturante Ironia
TTITLE5=Chico Boateiro
TTITLE6=Genuflexório
TTITLE7=O Santo de Cá
TTITLE8=Atitude
TTITLE9=Sentinela Alerta
TTITLE10=Choro de Consolação
TTITLE11=Pra 82
EXTD=YEAR: 2004 ID3G:  17
EXTT0=
EXTT1=
EXTT2=
EXTT3=
EXTT4=
EXTT5=
EXTT6=
EXTT7=
EXTT8=
EXTT9=
EXTT10=
EXTT11=
PLAYORDER=
